<svg version="1.1" id="Layer_1" xmlns="http://www.w3.org/2000/svg" xmlns:xlink="http://www.w3.org/1999/xlink" x="0px" y="0px"
	 width="100%" viewBox="0 0 672 1024" enable-background="new 0 0 672 1024" xml:space="preserve">
<path fill="#000000" opacity="1.000000" stroke="none" 
	d="
M211.466125,1025.000000 
	C211.085114,1024.510254 211.420563,1023.765320 211.219177,1023.567871 
	C204.107758,1016.595093 208.328491,1008.798157 210.082886,1001.577393 
	C213.537750,987.357727 217.482224,973.236694 221.797287,959.251770 
	C226.760056,943.167480 228.835312,926.773071 228.750427,910.025146 
	C228.726776,905.359619 225.295441,902.631958 222.658218,899.497803 
	C220.732803,897.209595 218.331100,895.302063 216.539413,892.925049 
	C211.403198,886.110962 206.443481,879.480469 211.543976,869.996643 
	C214.167221,865.119080 215.086151,859.298279 217.317810,854.074829 
	C219.760513,848.357422 220.323273,842.449219 220.218231,836.104004 
	C220.014618,823.803955 221.194565,811.481384 220.836151,799.153137 
	C220.772018,796.946777 222.224228,793.813660 218.610260,792.908203 
	C213.758911,791.692688 208.716492,793.371216 207.412689,796.708618 
	C203.962051,805.541260 200.765732,814.473450 197.302338,823.300903 
	C192.263397,836.144348 188.185730,849.921753 178.904633,860.089478 
	C173.392899,866.127625 168.507141,872.825562 162.765778,878.759033 
	C154.288635,887.519836 144.180725,887.025696 134.017090,888.235474 
	C131.858505,888.492371 129.753189,888.073608 128.004837,886.412292 
	C119.561943,878.390198 111.758476,869.465454 102.398163,862.701538 
	C92.528778,855.569824 90.433609,845.356567 87.940674,835.128784 
	C82.991440,814.823547 82.557892,793.925171 80.783852,773.212708 
	C80.386467,768.573059 79.908607,763.929688 79.796097,759.280090 
	C79.721161,756.183411 77.321831,754.995239 75.403076,754.515320 
	C70.279678,753.234009 69.319565,749.292664 68.854332,745.242554 
	C67.396011,732.546875 64.805916,720.006531 64.310280,707.159363 
	C64.110085,701.970154 67.498199,699.413025 69.676506,695.906372 
	C70.873825,693.978943 72.770874,692.486145 74.475159,690.666382 
	C71.733093,685.271118 67.190041,681.464478 63.641796,676.940186 
	C59.806358,672.049744 57.887669,666.621155 56.024960,660.876709 
	C49.153915,639.686768 45.199413,617.635132 36.699631,596.915405 
	C32.308319,586.210754 31.179401,574.653687 29.877777,563.240906 
	C29.451937,559.507141 29.965523,555.716736 34.486942,554.367432 
	C39.029324,553.011841 41.763378,555.680481 43.992783,559.023254 
	C46.614861,562.954956 47.954300,567.417236 49.118660,571.982666 
	C47.517326,559.197632 45.937309,546.409790 44.296322,533.629822 
	C43.975685,531.132690 43.843937,528.698181 44.318810,526.185730 
	C44.878468,523.224792 45.719540,520.629211 49.103859,519.948120 
	C52.580601,519.248474 55.706093,519.670898 58.109325,522.700439 
	C60.244823,525.392517 61.210922,528.558105 62.413998,531.770142 
	C62.263329,525.350647 60.946949,519.020386 61.293243,512.572998 
	C61.543846,507.907227 62.401413,503.852112 67.348595,502.219666 
	C71.381294,500.888947 75.319992,503.333923 78.033585,508.458923 
	C81.395370,514.808167 82.116188,521.784119 82.700653,528.752136 
	C83.395576,537.036804 85.272606,545.073364 87.716080,553.061890 
	C86.994080,542.977722 86.359634,532.885925 85.491608,522.814331 
	C85.260063,520.127686 85.394150,517.502319 85.542404,514.847900 
	C85.722763,511.618896 85.883026,507.976471 89.531532,506.985931 
	C93.607811,505.879272 97.552864,507.132294 100.233498,510.658539 
	C103.989983,515.600037 105.991142,521.473206 105.669708,527.487854 
	C105.080948,538.504456 107.883125,548.919861 110.102829,559.446960 
	C112.821136,572.338745 116.627808,584.910889 122.523354,596.770813 
	C122.955315,597.639771 123.205269,598.676941 123.244148,599.647705 
	C123.328987,601.766235 123.624626,604.055420 126.027481,604.266785 
	C128.375870,604.473450 129.098267,602.069641 129.875198,600.253967 
	C131.666412,596.067871 131.939972,591.535522 132.817093,587.134888 
	C134.612503,578.127136 139.144135,571.178955 147.921539,567.385681 
	C150.721649,566.175537 153.364502,566.083313 156.168121,566.903015 
	C160.910446,568.289490 162.855927,571.570251 160.201508,575.573364 
	C151.306244,588.987976 151.457748,604.300232 150.545120,619.333496 
	C150.129745,626.175842 149.771927,632.902588 147.668839,639.478699 
	C147.087921,641.295227 147.244415,643.347595 147.062561,645.291687 
	C147.465271,645.390747 147.867966,645.489807 148.270660,645.588867 
	C150.658554,638.656860 153.413086,631.825623 155.351730,624.770142 
	C158.568573,613.062744 162.432495,601.540039 165.044342,589.650391 
	C166.310226,583.887878 167.438522,578.236938 166.481964,572.372192 
	C166.005493,569.450928 167.469757,567.524963 168.904129,565.161316 
	C173.302063,557.914368 180.118713,552.781006 184.847733,545.716248 
	C188.711258,539.944519 193.572525,534.556946 201.505798,532.450928 
	C214.387955,529.031189 226.485352,523.245300 237.911819,516.252197 
	C242.385513,513.514221 246.220108,509.965393 248.883301,505.496368 
	C253.128632,498.372437 260.085205,498.267639 266.805481,500.932739 
	C271.247620,502.694366 274.564178,503.372192 277.665192,499.085968 
	C278.393524,498.079254 279.731903,497.235352 280.949280,496.905243 
	C290.301727,494.368958 293.179779,486.135590 296.543610,478.700439 
	C299.975861,471.114227 304.024200,464.814148 312.641083,462.369965 
	C315.918884,461.440247 318.854248,459.245117 321.883148,457.517120 
	C323.791870,456.428223 323.677856,454.477905 323.548828,452.625671 
	C323.404816,450.558319 321.961731,450.506287 320.327606,450.448914 
	C316.727966,450.322510 315.118164,447.167328 312.716614,445.208740 
	C309.317596,442.436523 307.247131,438.098969 303.045929,436.447418 
	C300.618500,437.879395 301.402313,440.304260 300.377167,441.996674 
	C298.310516,445.408386 296.229980,445.581543 294.095703,442.234131 
	C291.770538,438.587280 289.656128,434.794281 287.155701,431.273895 
	C283.661377,426.354126 282.029663,426.513885 279.331757,431.672455 
	C272.252686,430.884705 270.050598,424.954132 267.150024,419.899567 
	C264.667511,415.573547 262.630493,410.993530 260.208130,406.630371 
	C259.444977,405.255737 258.513397,403.398071 256.580719,403.584564 
	C254.527618,403.782623 254.530670,405.852936 253.950928,407.383331 
	C252.682297,410.732208 251.180771,413.955566 248.010880,415.657745 
	C246.608582,414.957855 246.517609,414.154633 246.593674,413.291687 
	C247.738312,400.306396 242.349731,389.346985 235.966385,378.658356 
	C234.446243,376.112946 232.378998,374.746582 229.518967,374.674469 
	C222.323349,374.493011 216.762604,370.655182 212.038239,365.973907 
	C206.549362,360.535034 200.657166,355.601318 194.086578,351.792511 
	C189.681351,349.238953 190.882584,344.522522 188.299667,341.631012 
	C179.354187,331.616699 180.190765,319.524109 180.673843,307.451538 
	C180.831970,303.500031 182.446899,300.071808 184.027267,296.565033 
	C185.537506,293.213898 186.781769,290.741943 185.035477,285.939575 
	C181.174362,275.321198 180.035217,263.703522 182.750061,252.211823 
	C184.176071,246.175720 183.272324,245.535248 177.124283,247.279266 
	C172.325668,248.640503 167.487717,250.195877 161.664764,249.589127 
	C165.486252,244.329575 169.065079,240.394928 173.718506,236.912415 
	C181.282913,231.251373 185.611252,222.613632 189.383484,214.076263 
	C190.844711,210.769196 187.396606,207.225327 187.906967,203.416351 
	C188.487625,199.082565 184.924500,197.445709 182.265686,194.868851 
	C177.039566,189.803864 172.590469,183.932510 167.894272,178.332413 
	C167.420746,177.767731 167.123810,176.689331 167.304825,175.995407 
	C170.905060,162.193420 171.758667,147.678940 178.019104,134.564835 
	C178.914459,132.689270 180.272827,131.302521 181.989136,130.190903 
	C193.628662,122.652222 202.894241,112.164253 214.205566,104.223061 
	C224.116104,97.265335 233.600677,89.686752 244.241776,83.788086 
	C247.583344,81.935753 250.966766,80.004143 253.886612,77.574684 
	C262.868713,70.101173 273.704956,66.138062 283.965942,61.051804 
	C297.013428,54.584274 311.176208,52.495754 325.269958,50.018684 
	C346.604919,46.268932 368.113159,47.194275 389.541779,48.113869 
	C408.833344,48.941757 426.612976,55.326130 442.891266,65.817833 
	C449.187439,69.875847 455.176178,74.452408 461.581360,78.245346 
	C468.217926,82.175331 474.160583,87.245590 481.681000,89.879555 
	C487.967590,92.081383 492.284210,97.042671 496.887238,102.082611 
	C504.847778,110.798759 516.529297,114.888153 526.403870,121.304871 
	C533.413269,125.859772 538.591370,130.872604 540.132935,139.150848 
	C542.172363,150.102325 546.320984,160.569702 547.448364,171.744995 
	C547.768738,174.920151 547.476440,177.850922 545.670776,180.317963 
	C540.744568,187.048767 537.183411,194.779251 529.751282,199.661407 
	C525.816223,202.246384 526.455383,207.394852 527.633972,211.270691 
	C531.617920,224.371429 534.593445,237.608978 535.786072,251.275070 
	C536.161682,255.579163 537.897522,259.665344 540.011292,263.488831 
	C541.698181,266.540161 543.104004,270.216492 549.097412,266.414093 
	C546.552368,270.928772 547.001038,275.058563 542.454285,276.491058 
	C538.956299,277.593109 534.658447,275.977142 531.916077,279.246826 
	C531.849731,281.371460 534.406616,280.256653 534.587280,281.845703 
	C529.909851,284.382996 528.121460,290.140442 530.837280,295.301178 
	C536.858154,306.742462 534.473816,318.721649 532.904236,330.467834 
	C532.436523,333.968231 528.711426,336.978027 526.679932,340.334351 
	C517.621033,355.301270 504.473572,366.147766 488.479218,371.746979 
	C480.306488,374.608002 477.734680,379.808502 474.349762,385.771423 
	C470.219727,393.047028 466.975861,400.665161 465.008820,408.837982 
	C464.302612,411.772095 464.371521,414.693329 464.638794,418.005768 
	C458.620575,417.501495 457.541107,412.631866 454.448914,407.666870 
	C446.927734,421.185699 438.521484,433.157104 427.003082,442.449127 
	C423.931152,441.219727 425.650726,438.068604 424.094910,436.296814 
	C422.013214,435.710663 421.282196,437.595673 420.166626,438.648529 
	C416.069611,442.515076 412.312622,446.679382 407.199432,449.441650 
	C402.691132,451.877167 403.062103,455.773010 407.696625,458.023407 
	C409.178864,458.743073 410.808136,459.244568 412.424896,459.588165 
	C419.634796,461.120514 423.756317,466.272491 426.982056,472.238983 
	C433.941620,485.111755 444.886230,493.427795 457.782013,499.475555 
	C460.866699,500.922150 464.446289,500.152863 467.667389,499.529633 
	C476.030548,497.911407 482.917145,500.069641 489.054199,506.013306 
	C494.073212,510.874146 499.871582,514.138062 507.010651,516.060425 
	C515.750427,518.413818 523.847229,523.134216 532.252563,526.760620 
	C535.460632,528.144714 538.749207,529.343445 542.007751,530.609375 
	C550.050903,533.734070 555.518921,539.500488 558.708313,547.376099 
	C559.856384,550.211304 561.471375,552.283997 564.301208,553.325684 
	C567.750671,554.595520 569.680664,557.175537 570.576660,560.570679 
	C571.509338,564.104980 573.111816,567.730469 572.935181,571.241394 
	C572.299133,583.886414 577.816345,594.933960 581.408142,606.448181 
	C589.324890,631.827393 600.114258,656.192505 607.675903,681.746094 
	C611.714355,695.393616 618.996765,708.010803 623.349731,721.696655 
	C624.011597,723.777405 624.218384,724.998840 622.553040,726.377014 
	C621.144287,727.542969 620.006653,729.154297 618.440674,729.992493 
	C611.265869,733.832703 611.233765,739.452209 612.359375,746.802795 
	C616.465149,773.615173 622.431091,800.090088 626.408569,826.917664 
	C627.283752,832.820923 629.138550,838.578491 630.021912,844.481018 
	C631.726440,855.869568 626.195679,865.767883 623.413086,876.318481 
	C619.507996,891.125122 610.454590,902.635376 601.755676,914.355164 
	C589.301941,931.133789 580.490051,950.275635 567.211487,966.465210 
	C565.844116,968.132263 564.415039,969.781555 562.817200,971.219727 
	C559.645447,974.074280 558.247009,977.227112 560.104858,981.430054 
	C561.111023,983.706238 560.619751,985.744751 559.127686,987.937683 
	C554.726807,994.405151 550.617310,1001.072144 546.442627,1007.691895 
	C543.252197,1012.751099 541.590698,1018.245667 542.000977,1024.640869 
	C444.645782,1025.000000 347.291534,1025.000000 249.486328,1024.735596 
	C249.543991,1020.292480 255.153900,1014.997253 259.678162,1015.420837 
	C263.994537,1015.824890 265.235992,1013.728821 265.999756,1010.305786 
	C266.278870,1009.054810 266.058929,1007.599060 267.171509,1006.623657 
	C271.633911,1006.187500 277.543549,1001.713257 277.357758,998.948120 
	C277.053925,994.426270 275.322388,990.294434 273.859253,986.041870 
	C272.079926,986.041870 270.291351,986.041870 268.518585,986.041870 
	C267.858795,984.482361 267.419312,982.037292 266.690369,981.947754 
	C261.791534,981.345703 261.270752,977.594727 260.811646,974.231384 
	C255.594894,975.211487 256.390839,979.577148 255.255157,982.853394 
	C254.132706,986.091309 252.254272,988.574341 249.050797,990.264709 
	C244.874313,992.468384 240.563049,991.921753 236.261581,991.584045 
	C234.534409,991.448486 233.404022,991.742554 232.541382,993.060486 
	C232.388153,994.596008 234.725662,994.206238 234.425583,995.750732 
	C224.494812,1005.690063 224.494812,1005.690063 229.135681,1013.742310 
	C225.062851,1016.651550 224.627991,1020.574158 226.000000,1025.000000 
	C221.310745,1025.000000 216.621490,1025.000000 211.466125,1025.000000 
M505.007751,896.535950 
	C508.283051,893.418213 510.786591,889.657959 513.668396,886.215088 
	C518.140930,880.871582 520.834229,875.693237 514.646118,869.803223 
	C514.213867,869.391846 514.067505,868.605713 513.936646,867.963623 
	C512.662354,861.711914 510.100067,855.936646 507.637573,850.095764 
	C506.573242,847.571228 504.868011,845.127808 505.117126,842.154785 
	C505.616821,836.191223 506.428223,830.237549 506.585510,824.265930 
	C506.756439,817.776001 508.682526,811.289246 507.427063,804.849182 
	C505.921021,797.123779 507.096283,789.373657 506.672363,781.644348 
	C506.259369,774.114075 507.882141,766.410278 509.111694,758.864319 
	C511.870605,741.932922 513.656677,724.913391 514.693787,707.798706 
	C515.620056,692.513367 516.844116,677.244080 517.589111,661.950745 
	C517.849304,656.610596 519.169922,651.114319 517.216125,646.035034 
	C515.839111,645.348450 514.758179,647.207031 513.448303,645.399963 
	C514.592712,643.788879 515.842957,642.066833 517.052612,640.316650 
	C518.794861,637.795898 520.000427,635.117188 519.658691,631.923401 
	C518.868835,624.541199 517.800720,617.133850 521.330750,610.068848 
	C521.703552,609.322632 521.852478,608.223267 521.063477,607.769348 
	C517.422363,605.674072 519.708557,603.798462 521.124573,601.791931 
	C528.702515,591.053284 536.537354,580.475464 542.237671,568.544739 
	C542.948059,567.057800 543.786743,565.944275 546.325012,567.310852 
	C542.994263,572.259521 544.629150,578.560059 542.084778,583.638489 
	C537.244019,593.300476 532.397949,603.102539 526.197510,611.889099 
	C522.212891,617.535645 523.463928,622.518311 524.124817,628.183960 
	C530.899170,620.649841 533.759705,610.136230 543.139771,604.275574 
	C543.503906,606.171753 542.726562,606.838074 542.143616,607.620544 
	C535.665161,616.316650 529.912354,625.473267 524.749390,635.007507 
	C523.608704,637.113953 523.114624,639.241150 523.188721,641.688232 
	C523.353394,647.128113 523.222412,652.491821 522.084106,657.958374 
	C521.030823,663.016724 521.368103,668.472107 521.780945,673.698303 
	C522.197998,678.979492 523.193298,684.227539 521.778625,689.451782 
	C518.883789,700.142212 518.816406,711.199829 517.447144,722.084351 
	C516.774353,727.432434 518.590332,729.016418 523.985107,728.868958 
	C527.976257,728.759888 532.004883,728.887085 535.947693,728.375671 
	C545.480103,727.139343 555.261841,727.972961 564.579468,725.016663 
	C572.435974,722.523804 579.222961,717.895874 586.374878,713.993408 
	C588.400269,712.888306 590.276978,711.150452 593.673279,711.382935 
	C590.216858,715.335205 586.002930,716.756165 582.508301,719.156982 
	C571.728577,726.562805 559.945862,730.987305 546.627869,731.316467 
	C538.843323,731.508850 531.079956,732.697754 523.257996,732.277771 
	C520.020203,732.104004 517.368652,733.483521 516.582458,736.426758 
	C514.889587,742.764099 514.170166,749.215332 517.683472,755.357056 
	C518.847717,757.392212 520.240051,758.843506 522.790466,758.585571 
	C531.395447,757.715149 539.986755,756.638062 548.611572,756.064819 
	C553.100464,755.766541 557.377930,753.763306 561.921753,754.470337 
	C566.614929,755.200500 570.755981,753.808838 574.877380,751.806458 
	C589.308411,744.795349 601.855469,734.749207 615.604126,726.643005 
	C617.072144,725.777466 618.695007,724.794373 617.933960,722.769592 
	C615.473022,716.222168 614.664673,709.198303 611.751892,702.758240 
	C606.201294,690.486389 600.830688,678.132446 596.588867,665.317810 
	C592.799744,653.871155 588.870178,642.468811 583.884033,631.417297 
	C584.461121,639.969360 586.931519,648.299316 586.956726,657.034058 
	C584.800659,656.757629 584.786499,655.594299 584.610046,654.681458 
	C581.458740,638.382629 578.029419,622.161560 572.924438,606.324158 
	C571.555725,602.077698 570.977539,597.563721 570.192017,593.144897 
	C568.818054,585.416016 567.036621,577.754028 568.120789,569.754028 
	C569.366699,560.559509 561.664978,557.291748 555.989075,553.171570 
	C551.967346,550.252136 551.569275,556.413269 548.837952,557.292725 
	C548.583191,557.374695 548.242126,557.188599 546.988770,556.931946 
	C549.830994,554.834778 550.613647,551.926392 552.194580,549.517700 
	C554.602844,545.848572 553.352478,543.629028 549.869385,541.999817 
	C546.702942,540.518616 543.538025,539.015320 540.289673,537.731445 
	C528.217590,532.960510 516.107605,528.285706 504.021423,523.550415 
	C501.729340,522.652405 499.602356,521.805237 498.245148,519.265503 
	C495.205811,513.577942 488.827545,513.113831 484.783600,518.090454 
	C483.077789,520.189758 481.023743,520.722656 478.564667,520.108521 
	C474.804749,519.169556 472.630005,516.654785 471.615692,512.984497 
	C470.379120,508.510345 474.720978,507.481201 476.626038,504.933838 
	C471.984375,500.704102 469.497345,505.262238 466.552673,507.365845 
	C463.723022,509.387299 465.416321,511.883575 466.396942,514.079468 
	C469.920135,521.968628 477.782166,524.753601 484.275757,529.184814 
	C490.838440,533.663147 498.651703,534.837646 505.778076,537.791626 
	C516.515869,542.242676 527.509888,546.375488 535.535034,555.443359 
	C537.302917,557.440857 539.180664,556.748901 540.862122,555.479736 
	C543.267761,553.664062 545.520813,551.646179 548.831299,548.887939 
	C547.347534,553.513733 544.340759,556.183777 545.731018,560.484070 
	C546.293396,562.223267 543.135620,563.948242 540.700073,564.345581 
	C540.447815,564.386658 540.137390,564.071228 539.857971,563.907959 
	C539.298035,562.540405 541.516846,561.132751 539.606628,559.626099 
	C536.821533,558.579163 533.710144,560.288330 530.381592,558.074341 
	C521.696106,552.296997 513.426147,545.041260 503.290863,542.469299 
	C493.068268,539.875244 485.962494,530.475586 474.819061,530.617676 
	C474.270233,530.624695 473.597443,530.033386 473.176575,529.551208 
	C468.497528,524.190186 461.058502,520.732544 461.075928,512.107788 
	C461.076538,511.793030 460.875885,511.476715 460.763336,511.163177 
	C459.306488,507.103943 455.630890,505.894043 452.096924,505.478180 
	C448.044769,505.001312 450.371399,508.875244 449.456635,510.622620 
	C449.379578,510.769775 449.307312,510.920807 449.248932,511.076111 
	C446.041504,519.610718 443.816345,528.432190 441.359131,537.198792 
	C437.959290,549.328186 436.081482,561.972778 429.717438,573.171265 
	C428.628052,575.088196 427.841919,576.383728 425.226105,575.897705 
	C419.697540,574.870483 414.300690,573.762756 410.469238,569.127441 
	C407.923706,566.047852 405.476349,562.881409 402.822388,559.898560 
	C399.723999,556.416199 398.263641,556.641174 396.390289,560.757935 
	C393.702789,566.663757 390.900482,572.492432 387.349884,577.953857 
	C384.287628,582.663940 383.520386,587.646484 385.435364,593.172607 
	C388.159393,601.033325 389.893402,609.166565 391.398499,617.362671 
	C393.351044,627.995667 395.169037,638.667908 398.880280,648.911865 
	C400.150635,652.418396 402.772095,656.217957 398.740784,659.858521 
	C398.321838,660.236877 398.569519,661.453430 398.648682,662.267395 
	C399.309387,669.060608 400.005157,675.850342 400.686401,682.641541 
	C403.510498,710.794739 406.046936,738.967590 407.339966,767.244812 
	C407.901611,779.527771 408.940308,791.788635 409.723511,804.061951 
	C410.667969,818.861633 413.721313,833.400024 415.120483,848.139954 
	C415.332794,850.376770 415.932617,852.739197 414.284790,854.859619 
	C401.414001,871.422302 389.550934,888.717773 377.319183,905.745789 
	C371.246429,914.199585 371.181152,914.152710 362.744629,908.947388 
	C361.809357,913.052002 361.344177,917.377197 364.266785,920.271362 
	C366.997406,922.975403 371.154114,921.961914 374.743103,920.955688 
	C376.021057,920.597351 377.203644,919.836670 378.492798,919.592529 
	C381.879150,918.951294 384.915497,916.802063 389.544312,916.847961 
	C386.544495,918.540344 384.473969,919.708557 381.150482,921.583557 
	C388.340973,922.216064 394.133545,922.164185 399.830994,921.464844 
	C425.720825,918.286926 451.553955,914.624451 477.471619,911.705994 
	C488.728485,910.438416 497.981781,906.514404 505.007751,896.535950 
M321.669983,836.236267 
	C321.756683,834.405823 321.800507,832.572266 321.936584,830.745483 
	C323.617645,808.175903 325.266754,785.603699 327.020721,763.039734 
	C328.038727,749.943481 328.655762,736.830872 330.282349,723.761658 
	C332.582184,705.282776 335.097198,686.833740 336.002747,668.160522 
	C336.624786,655.333862 337.060913,642.357971 341.339508,629.797913 
	C345.619385,617.234131 348.554718,604.206909 351.924957,591.342285 
	C352.879517,587.698669 354.469849,583.325500 351.382812,580.420654 
	C345.894318,575.256042 342.479797,568.882568 339.051605,562.447388 
	C335.577576,555.926086 333.777039,555.807678 328.822540,561.364258 
	C324.370575,566.357239 322.735535,573.619019 314.488770,575.687744 
	C309.415863,576.960388 309.114563,578.403320 306.580933,573.499268 
	C296.058502,553.132141 285.925232,532.591370 278.815063,510.715332 
	C278.406830,509.459290 278.290649,507.827667 276.636230,507.741333 
	C274.728394,507.641724 273.910217,508.996246 273.175629,510.710663 
	C271.276672,515.142639 269.060822,519.421936 266.280853,523.407837 
	C262.995392,528.118347 259.381042,531.974854 253.495850,533.814514 
	C245.258728,536.389343 237.352798,540.004761 229.232559,542.976624 
	C216.503998,547.635010 206.899658,557.581848 194.670792,563.215881 
	C191.078629,564.870850 190.098007,563.636658 188.170227,561.854797 
	C186.596420,560.400024 185.406006,557.213684 182.618591,559.180298 
	C178.714294,561.934937 174.463135,564.764648 173.754272,570.083923 
	C172.958694,576.053955 171.056961,581.688477 169.464813,587.452148 
	C165.478577,601.882507 162.152512,616.518921 157.068436,630.605713 
	C154.399277,638.001221 153.981842,646.060608 150.504471,653.053772 
	C147.168182,659.763184 144.027237,666.537048 141.023209,673.391418 
	C139.538895,676.778198 137.968369,679.773132 141.803741,683.012573 
	C143.327560,684.299622 143.643600,687.213806 144.152771,689.467773 
	C145.617447,695.951538 147.066681,702.447998 148.183853,708.997192 
	C148.740509,712.260498 150.274033,713.813599 153.420334,714.713928 
	C158.374069,716.131531 163.261932,717.872559 168.020950,719.853210 
	C173.684357,722.210266 179.318848,724.740479 183.756989,729.276611 
	C173.089172,724.948486 162.988846,719.130859 150.627853,717.788025 
	C151.105820,721.169739 151.487915,723.922974 151.885681,726.674072 
	C152.311493,729.619080 153.054214,732.511292 151.537018,735.450317 
	C149.696838,739.015015 150.730637,741.008728 154.778503,742.418335 
	C173.596375,748.971497 190.868301,758.555237 207.357224,769.690063 
	C211.571472,772.535950 214.806229,776.563293 220.282150,779.997986 
	C221.261154,759.919250 216.975342,741.700012 212.221893,723.478394 
	C215.061035,725.863098 214.618576,729.933899 217.430176,732.940613 
	C216.633148,727.460999 217.445602,722.862366 218.679886,718.252197 
	C219.511307,719.176147 219.908646,720.081726 219.992874,721.015564 
	C220.800034,729.965759 221.045746,739.003601 222.487320,747.847595 
	C223.607010,754.716980 224.822403,761.475647 224.892273,768.482422 
	C224.965179,775.793030 226.071976,783.092285 226.170975,790.404053 
	C226.369064,805.034729 226.395203,819.671265 227.737335,834.248840 
	C228.156174,838.798035 227.109238,842.795288 225.175919,846.746216 
	C223.934250,849.283752 222.953476,851.966125 221.536407,854.397461 
	C217.777664,860.846375 217.940536,868.514099 214.885330,875.156738 
	C214.077484,876.913086 215.242477,877.963257 216.046402,879.189331 
	C220.937927,886.649780 226.400024,893.502563 233.226608,899.449951 
	C238.460541,904.009644 241.714600,909.642883 250.598145,909.562073 
	C257.940582,909.495239 265.568298,911.890564 273.254272,911.786804 
	C281.953552,911.669312 290.694641,912.337219 299.609222,909.622925 
	C283.018585,899.682373 266.427979,889.741821 249.454559,879.571838 
	C253.186340,877.920288 255.495560,880.378662 257.839813,881.762207 
	C272.753021,890.564392 287.595886,899.486755 302.405731,908.462280 
	C305.493408,910.333679 308.583954,911.135925 312.268829,911.185425 
	C318.640778,911.271118 325.001709,912.173889 331.367279,912.733948 
	C326.752075,915.302124 321.389648,911.812988 317.038391,915.373657 
	C317.661621,916.937561 318.812836,917.379883 319.882294,917.715271 
	C331.561707,921.378235 343.490356,922.873291 355.692627,921.464905 
	C357.252136,921.284851 359.632599,920.980347 359.609009,919.007141 
	C359.528320,912.265015 362.180725,905.170288 356.229004,899.177429 
	C348.852814,891.750427 341.397522,884.365173 335.741364,875.378845 
	C332.024933,869.474243 327.971252,863.736572 322.987640,858.764709 
	C321.496704,857.277222 321.119324,855.507080 320.724762,853.451965 
	C319.655609,847.883118 321.450317,842.585938 321.669983,836.236267 
M347.660034,439.932281 
	C360.249390,442.022278 372.433014,441.008392 384.331390,435.990082 
	C401.902344,428.579193 415.803589,415.125336 433.189606,407.201080 
	C445.675659,401.510223 451.514618,388.554718 457.056213,376.833038 
	C463.159790,363.922729 464.683624,349.174500 471.309845,336.293732 
	C471.608704,335.712799 471.644501,335.002563 471.886932,334.385590 
	C472.784454,332.101593 472.330017,330.531311 469.756683,329.827209 
	C468.511963,329.486664 467.336578,328.892853 465.771027,328.271240 
	C468.722443,321.896820 470.220337,315.464996 470.932434,308.628693 
	C471.775116,300.538788 473.088409,292.511932 472.904449,284.343842 
	C472.856720,282.222839 472.218109,280.341736 470.097046,279.447083 
	C461.482361,275.813568 454.770508,269.575592 447.910370,263.496490 
	C445.249786,261.138855 442.258850,259.466644 438.356323,260.930450 
	C430.253326,263.969818 422.071106,266.797943 413.965637,269.830994 
	C412.911438,270.225464 410.647461,270.492889 411.443451,272.179260 
	C412.889374,275.242432 410.561737,275.289185 408.998077,275.706696 
	C403.817932,277.089752 398.699402,278.490204 394.754242,282.480652 
	C394.061890,283.180939 393.050049,283.581696 392.217194,282.738251 
	C391.053009,281.033173 393.783997,279.609924 391.882935,277.470612 
	C387.408508,278.350677 383.352264,276.899475 379.999756,273.035614 
	C378.583221,271.403076 376.376892,272.063446 374.498230,273.266968 
	C371.200317,275.379730 368.917450,278.476074 366.307434,281.264893 
	C365.427612,282.204987 364.411804,284.031189 363.212097,283.333160 
	C359.325531,281.071808 357.453735,284.386505 354.899597,285.854736 
	C353.334412,286.754486 352.144257,288.943207 349.084839,287.008240 
	C356.415436,280.288422 361.726471,272.441986 367.454712,264.007202 
	C363.801208,263.514160 362.744141,265.240936 361.484558,266.435120 
	C354.430878,273.122375 346.520844,278.633270 338.121307,283.449829 
	C334.046112,285.786682 329.932220,288.296783 324.855560,286.895325 
	C326.061523,277.005402 326.061523,277.005402 318.436584,278.203735 
	C319.535614,279.928833 322.727905,280.341705 321.750458,284.357056 
	C316.783478,280.396942 311.510040,278.218262 306.027924,276.500000 
	C305.617157,276.371216 304.966278,275.710999 305.034210,275.542328 
	C306.712860,271.373871 302.866852,271.922852 301.052673,271.101593 
	C297.877350,269.664215 294.533539,268.583191 291.222534,267.464783 
	C285.729187,265.609161 280.057892,263.019531 274.327484,264.194885 
	C263.858643,266.342194 253.850128,269.960480 245.517609,277.210205 
	C242.687256,279.672760 241.394043,282.622498 240.399567,286.071350 
	C237.188934,297.205597 241.913162,308.174408 240.885742,319.446442 
	C240.275757,326.138672 244.043259,333.550598 245.874374,340.593140 
	C249.170242,353.269257 253.902145,365.642670 258.956512,377.757751 
	C261.129669,382.966675 262.122406,389.494263 266.610016,392.952576 
	C270.807983,396.187683 274.340027,400.094971 278.586853,403.234711 
	C286.626068,409.178040 295.307983,414.138397 303.475006,419.838867 
	C316.786499,429.130096 331.869202,434.249939 347.660034,439.932281 
M263.181427,77.703987 
	C237.706970,94.511574 213.715179,113.319565 189.823364,132.251389 
	C183.901611,136.943787 178.717163,142.296112 177.472015,150.383896 
	C176.739502,155.141922 175.343826,159.793991 174.383789,164.521606 
	C172.045761,176.035248 175.921265,183.960968 187.360199,190.299530 
	C189.557220,185.973694 191.265442,181.368988 194.662476,177.626785 
	C200.285950,171.431885 206.699631,166.143295 213.033661,160.824936 
	C221.968399,153.322906 231.657959,146.642670 242.523697,142.239044 
	C264.312744,133.408493 286.630920,126.288483 310.075714,123.210068 
	C322.910797,121.524765 335.762726,119.888451 348.516846,117.703445 
	C354.063049,116.753273 358.361389,119.922058 363.284637,120.569153 
	C374.681396,122.067101 386.171997,122.416283 397.686523,121.827454 
	C400.866486,121.664833 403.754883,120.874001 407.381683,121.575768 
	C417.270782,123.489235 426.608032,126.931961 436.171173,129.724579 
	C445.431641,132.428833 454.919556,134.652435 463.789551,138.334946 
	C483.421570,146.485489 501.766998,156.909378 516.113342,173.089722 
	C519.791077,177.237564 524.810242,180.462692 526.278564,186.311371 
	C527.280273,190.301285 529.041199,190.950699 531.933960,188.037521 
	C534.747559,185.204071 537.142639,181.939362 540.061890,179.230957 
	C542.721313,176.763672 543.417969,173.980927 542.692627,170.678635 
	C542.124268,168.091476 541.227966,165.577759 540.483215,163.047653 
	C538.352478,155.809402 535.122253,148.822952 535.437378,140.950790 
	C535.687378,134.705750 532.914856,130.447067 528.591003,129.582169 
	C529.592163,132.046143 530.547668,134.397552 531.682922,137.191498 
	C527.880676,136.803116 527.590393,134.073990 526.982483,132.088745 
	C525.289612,126.560219 521.758789,123.013268 516.512451,120.826744 
	C507.397308,117.027817 500.573181,109.191338 490.304810,106.987694 
	C485.492523,105.954956 481.256561,101.633881 477.071503,98.399277 
	C466.332306,90.099037 454.551086,83.244576 445.396240,72.750107 
	C439.242737,65.696182 429.600983,63.094315 421.350494,58.828709 
	C417.705170,56.944004 414.093628,54.595592 409.813263,54.313984 
	C386.100586,52.753922 362.437897,49.781261 338.603790,53.160759 
	C328.074219,54.653774 317.400269,55.084919 306.890503,56.928974 
	C290.640320,59.780254 277.714203,69.582573 263.181427,77.703987 
M561.315918,962.844971 
	C565.319641,957.320129 569.358459,951.820312 573.320984,946.266113 
	C589.638855,923.393616 607.170654,901.287598 617.595276,874.737000 
	C619.315430,870.355774 619.197388,865.333374 621.295349,861.494812 
	C624.502014,855.627502 624.978455,849.846069 623.882751,843.737915 
	C622.572876,836.435791 620.586853,829.255493 619.254150,821.956604 
	C618.244263,816.426025 618.113403,810.731323 617.045105,805.215515 
	C613.410156,786.445618 609.391235,767.749634 605.817932,748.968506 
	C604.365967,741.337097 602.751282,740.469604 596.147461,744.637024 
	C585.027954,751.653931 573.892761,758.635376 560.217957,759.694458 
	C555.073181,760.092957 549.960083,761.098511 546.012268,764.913757 
	C544.380432,766.490845 541.548828,768.380432 542.528076,770.436279 
	C544.312622,774.182617 542.089050,775.153748 539.803528,776.612427 
	C537.355591,778.174805 536.197021,780.071350 536.981201,783.300110 
	C538.666931,790.240601 539.833069,797.305359 541.347839,804.289734 
	C543.673157,815.011353 546.043396,825.734131 549.423523,836.180054 
	C551.163269,841.556335 554.187683,842.101746 558.254333,838.171021 
	C559.213989,837.243530 559.831543,836.096313 560.552734,834.989624 
	C562.147400,832.542725 564.534363,830.624329 567.615906,831.515503 
	C569.985413,832.200684 572.154419,831.992188 574.472534,831.775024 
	C582.509949,831.021851 588.594971,832.501709 591.992859,835.958984 
	C590.722900,836.587402 589.697815,835.662048 588.613831,835.604919 
	C584.681030,835.397644 580.361511,832.975708 576.944519,835.361450 
	C574.259216,837.236328 571.263428,837.835571 568.639526,839.350037 
	C563.801636,842.142578 558.298645,843.735596 554.359680,848.221313 
	C546.219788,857.491089 540.473755,868.019836 536.254822,879.533020 
	C529.839661,897.039856 525.500549,915.189941 519.511963,932.820557 
	C518.210815,936.651123 518.931152,938.613586 522.813721,939.837708 
	C530.389038,942.225891 537.034912,946.038879 542.354187,952.222351 
	C546.178345,956.667786 549.394409,961.489502 552.729614,966.258118 
	C554.750671,969.147644 556.843262,969.421936 558.953003,966.332764 
	C559.610168,965.370605 560.256104,964.400757 561.315918,962.844971 
M92.398949,555.073120 
	C93.249168,560.493774 94.032860,565.925964 94.970314,571.331482 
	C95.743973,575.792542 94.739677,581.451416 102.371262,581.813110 
	C98.316269,583.595581 94.969398,585.235107 90.781967,584.647278 
	C91.144905,582.611328 92.578491,581.066711 91.522385,578.923706 
	C82.594749,560.808228 80.679123,540.975647 77.580353,521.425049 
	C76.877686,516.991821 75.619507,512.639343 73.424637,508.657013 
	C72.681427,507.308472 71.576675,506.245300 69.856339,506.320862 
	C68.029976,506.401093 67.298424,507.803040 66.819351,509.228790 
	C65.810455,512.231384 65.141525,515.234070 65.673477,518.521729 
	C66.442268,523.273254 66.661545,528.111145 67.332451,532.881653 
	C68.672935,542.413269 67.839684,552.254456 71.232811,561.488281 
	C74.173607,569.491089 75.151054,577.969727 77.391655,586.139709 
	C77.730408,587.374878 78.283447,588.757629 76.658806,589.725159 
	C74.160126,589.819397 74.013832,587.588013 73.288368,586.074158 
	C66.314369,571.521057 62.968437,555.895630 59.710209,540.230225 
	C58.767391,535.697266 58.113976,531.040649 56.003414,526.814880 
	C55.082668,524.971313 53.955215,523.042114 51.587559,523.461243 
	C49.017525,523.916016 49.163586,526.273987 49.080330,528.271057 
	C48.835880,534.134949 50.004093,539.879272 50.616310,545.667969 
	C52.470104,563.196228 56.698547,580.291260 60.084835,597.541809 
	C60.471272,599.510437 61.812473,600.050598 63.172596,600.968689 
	C62.052635,602.317017 61.500061,603.953369 59.603073,604.678833 
	C51.057888,597.600647 49.638210,586.797363 45.649174,577.400574 
	C44.074677,577.745422 43.869419,579.857300 41.669872,579.196045 
	C47.328590,572.445190 43.389557,566.500122 40.180183,560.518127 
	C39.359394,558.988281 38.093975,557.728149 36.134022,558.442505 
	C34.163769,559.160583 34.941383,560.803894 35.045830,562.275696 
	C36.068249,576.682983 40.782280,590.269836 44.490936,604.054199 
	C48.404179,618.598816 54.267475,632.520813 56.968391,647.519348 
	C58.952812,658.539062 63.195026,669.064697 71.746048,677.341919 
	C77.739647,683.143555 84.094574,686.980469 92.923332,685.658630 
	C90.571434,687.795837 87.949425,688.597595 85.150864,688.221436 
	C80.929344,687.654053 80.207047,689.850220 80.730209,693.257263 
	C81.234535,696.541626 82.148575,699.811951 82.214638,703.101929 
	C82.291634,706.936646 84.095039,707.843689 87.506721,707.903381 
	C98.166939,708.090149 108.291618,705.883057 118.172638,701.987610 
	C127.882690,698.159546 128.062637,698.121521 127.925545,687.934082 
	C127.803802,678.886902 127.803810,678.886902 119.722488,680.027405 
	C120.217308,677.441956 122.628609,676.512085 124.004921,674.760498 
	C131.076706,665.760498 140.331711,657.904541 141.309296,645.462830 
	C141.989822,636.802002 145.794098,628.857300 145.839966,619.990967 
	C145.923599,603.828674 146.712158,587.623291 156.003357,573.373901 
	C156.222076,573.038391 156.030914,572.435730 156.030914,571.756042 
	C151.899139,569.998169 148.531906,571.697021 145.614792,574.274719 
	C139.415710,579.752502 136.279419,586.270691 139.534409,593.104187 
	C134.330597,601.959106 129.734848,609.779358 125.037964,617.771729 
	C121.649918,615.193848 119.012848,616.574707 116.683502,619.141357 
	C114.320953,621.744507 112.530220,624.732239 110.841438,627.817139 
	C109.257332,630.710754 107.324211,633.413269 105.544693,636.199890 
	C106.734055,629.296387 108.771179,622.850769 113.130951,617.482727 
	C117.867744,611.650391 118.920311,605.792847 116.272568,598.333069 
	C109.811340,580.129272 105.019012,561.456543 102.574234,542.188599 
	C101.369492,532.693726 100.988205,522.875061 96.088387,514.156982 
	C95.226982,512.624329 94.552643,511.090240 92.469574,511.430115 
	C90.620216,511.731873 90.254875,513.329468 90.059525,514.816406 
	C89.866447,516.286072 89.835617,517.800110 89.934135,519.281372 
	C90.707474,530.909180 91.528999,542.533875 92.398949,555.073120 
M86.066681,765.085632 
	C86.459633,769.054810 86.874336,773.022034 87.241837,776.993591 
	C88.973145,795.703369 89.559952,814.533508 92.469559,833.112793 
	C93.802811,841.626221 96.162041,849.817383 102.843658,856.344910 
	C107.948280,861.331726 113.592339,865.709106 118.488365,870.922119 
	C121.551300,874.183350 124.947182,877.217651 128.551636,879.866760 
	C136.315598,885.572876 151.450989,882.619324 157.259323,875.137573 
	C159.844330,871.807678 160.311081,867.099304 163.590927,864.688904 
	C172.635635,858.041687 179.567566,849.766296 184.183762,839.648315 
	C192.544800,821.322144 199.517838,802.435608 206.296814,783.477478 
	C209.286560,775.116333 207.524506,771.441711 198.880981,768.889587 
	C195.991837,768.036499 193.401855,766.986816 190.911453,765.085083 
	C181.741486,758.082642 171.563507,752.789673 160.788910,748.685486 
	C158.962189,747.989685 156.827866,747.398315 155.164612,749.142761 
	C153.567398,750.817993 154.676437,752.774719 155.316788,754.315186 
	C159.562500,764.529541 162.111618,775.475220 168.349136,784.835815 
	C169.914383,787.184875 171.718155,789.406494 172.406174,792.233093 
	C175.126358,803.408386 177.124481,814.683716 175.920990,826.233704 
	C175.691452,828.436584 176.132080,831.240662 173.448441,833.041504 
	C170.895340,829.210083 171.539246,825.104492 171.792999,821.272278 
	C172.613922,808.873901 169.118881,797.537048 163.641266,786.721741 
	C158.449966,776.471680 153.383423,766.229004 150.563110,754.990417 
	C149.543716,750.928284 148.319458,746.789429 145.634674,742.854126 
	C140.815048,746.810120 135.910416,749.568298 130.597198,751.528198 
	C125.298256,753.482788 119.881310,755.128906 114.631523,757.202515 
	C107.017609,760.209961 99.311409,761.524475 91.228279,759.556580 
	C87.223343,758.581482 84.896255,759.544739 86.066681,765.085632 
M345.610260,139.943558 
	C347.274475,139.881973 348.940582,139.735138 350.602600,139.772125 
	C365.361023,140.100555 380.119934,137.265076 394.902588,140.609573 
	C406.607758,143.257797 417.825928,147.510269 429.500793,150.210434 
	C436.708862,151.877502 443.730103,153.710342 449.999603,158.409210 
	C461.777893,167.236786 476.823242,168.973999 489.770233,175.416840 
	C491.269501,176.162933 492.662964,175.678482 493.442780,173.942245 
	C494.745636,171.041367 493.684631,160.800003 491.181000,159.209030 
	C483.644806,154.419968 477.177032,148.209503 468.638641,144.667542 
	C452.912384,138.143875 436.291046,134.430405 420.485870,128.244293 
	C413.336761,125.446136 404.611420,124.572449 398.645447,125.480118 
	C404.131775,127.698067 410.915009,126.215744 416.422699,130.402176 
	C414.046387,131.637299 412.110382,130.600845 410.231171,130.235016 
	C380.506439,124.448524 350.619781,121.446350 320.498199,126.393707 
	C304.659698,128.995132 288.279938,129.126038 273.266663,135.914322 
	C271.455719,136.733154 269.565918,137.397827 267.673035,138.011765 
	C255.384903,141.997238 242.675262,144.763443 232.616104,153.986023 
	C225.580719,160.436279 217.624817,165.873932 210.197464,171.908371 
	C205.577545,175.661896 205.442993,178.597275 209.306595,183.606110 
	C211.574158,180.941437 212.505539,176.263763 217.054077,176.950485 
	C219.092545,177.258240 220.256546,176.559189 221.522598,175.707184 
	C226.126892,172.608673 230.516769,169.242676 234.822968,165.729736 
	C240.598740,161.017944 248.680405,159.116516 255.809647,156.097168 
	C256.909729,155.631271 258.206451,155.655426 259.634796,156.725143 
	C255.510086,158.519302 251.895584,160.091522 248.281082,161.663757 
	C250.360535,161.878311 251.987411,160.939407 253.725967,160.632004 
	C260.137024,159.498428 263.901184,153.123535 270.768005,152.510010 
	C273.892822,152.230835 276.951202,152.818466 280.118622,152.185150 
	C294.300598,149.349503 308.518188,146.638885 322.802887,144.391602 
	C330.169342,143.232697 336.892883,139.040314 345.610260,139.943558 
M377.422516,145.972290 
	C368.286835,146.103622 359.151520,146.300201 350.015411,146.353287 
	C327.973114,146.481400 306.511963,150.486435 285.241211,155.857590 
	C283.496460,156.298172 281.605042,156.650345 279.848572,156.452026 
	C275.924347,156.008911 272.152954,156.581421 268.585480,157.974594 
	C261.938141,160.570526 255.243500,163.136353 248.865204,166.310730 
	C236.461899,172.483658 224.807281,179.875198 214.838806,189.631760 
	C213.296783,191.141022 210.130554,191.919861 210.986435,194.836182 
	C211.803909,197.621643 214.928314,197.619705 217.201996,198.373642 
	C218.717438,198.876160 220.799026,199.230591 222.087814,198.581039 
	C227.038574,196.085876 232.705902,195.779572 237.589355,193.328308 
	C249.322815,187.438690 260.648376,180.771561 272.652466,175.378799 
	C287.868408,168.543182 304.143372,166.224579 320.274292,162.838226 
	C345.467499,157.549438 370.305695,160.765961 395.228027,163.725311 
	C403.827332,164.746399 411.917877,168.209442 420.218903,170.636017 
	C439.202698,176.185440 458.569214,180.705261 475.374573,191.940674 
	C482.297882,196.569366 489.823578,197.110428 497.616699,194.361389 
	C499.189758,193.806488 500.841431,193.261261 500.533020,190.980408 
	C499.999817,187.037003 492.606628,179.502777 488.830383,179.918686 
	C485.331635,180.304001 482.747101,178.901871 480.020844,177.399078 
	C476.528717,175.474106 473.229340,173.120804 469.585663,171.563080 
	C453.838623,164.830963 437.708801,159.147018 421.258698,154.352921 
	C407.216431,150.260513 393.070312,146.799423 377.422516,145.972290 
M356.884552,519.700195 
	C359.512939,520.726501 362.236328,521.567078 364.735657,522.845642 
	C366.346191,523.669556 367.572662,523.460083 368.900238,522.603333 
	C379.932373,515.483276 391.015259,508.489716 399.707489,498.317902 
	C402.548126,494.993713 403.403534,491.634033 402.247559,487.814087 
	C399.381683,478.343689 398.855865,468.573242 398.036316,458.827393 
	C397.619476,453.869873 396.592743,453.310150 392.169189,455.579895 
	C383.442352,460.057648 374.715820,464.535950 365.987854,469.011505 
	C363.090973,470.496948 359.952667,471.333405 356.837524,470.391754 
	C349.691223,468.231659 342.530945,466.033844 335.588562,463.310394 
	C330.278168,461.227112 329.517578,461.438873 329.481934,467.427673 
	C329.437897,474.826660 328.165436,482.065399 325.141907,488.746857 
	C323.766479,491.786346 324.017548,493.665741 326.108795,495.786652 
	C335.131531,504.937256 344.746460,513.332336 356.884552,519.700195 
M442.075806,511.038300 
	C442.273743,510.232239 442.343018,509.365051 442.692047,508.630768 
	C444.127228,505.611267 444.176086,503.738434 440.682983,501.439453 
	C437.079254,499.067657 433.358795,495.326569 432.016998,491.390991 
	C429.339508,483.537628 424.092316,477.638489 419.493774,471.194794 
	C417.090149,467.826721 413.455292,466.055023 409.711945,464.589661 
	C408.436340,464.090332 407.043335,464.103607 406.021820,465.264130 
	C404.957642,466.473206 405.389465,467.806488 406.059235,468.979004 
	C406.624146,469.967865 407.637817,470.718018 408.122864,471.731720 
	C410.266876,476.212524 415.855408,479.219757 414.492310,485.148895 
	C413.465363,489.615875 410.686340,493.630402 412.018158,500.063721 
	C408.512787,496.697449 406.877594,497.290710 405.489105,499.835449 
	C404.792725,501.111694 403.498138,502.053192 402.518646,503.184631 
	C395.353271,511.461365 386.151581,517.236877 377.458221,523.640869 
	C374.118835,526.100769 373.886444,528.735657 377.098328,529.374939 
	C382.440063,530.438110 385.283386,533.955200 388.472260,537.765930 
	C394.121429,544.516785 400.131897,550.986816 406.285217,557.287231 
	C411.109344,562.226685 416.377411,566.732483 421.240173,571.238159 
	C423.596161,570.321167 424.040405,568.571045 424.965271,567.241638 
	C429.406769,560.857605 431.397888,553.370972 433.982941,546.214355 
	C437.986359,535.131042 441.625488,523.878662 442.075806,511.038300 
M292.139130,532.380310 
	C297.531708,546.642578 304.033508,560.391785 310.589996,574.176880 
	C313.085724,573.071594 314.035950,571.434570 315.096558,570.023193 
	C322.981598,559.529968 331.262939,549.362793 339.919189,539.499390 
	C343.203033,535.757629 346.272858,531.780457 351.334595,530.147339 
	C352.535095,529.759949 353.720947,528.931091 354.037384,527.267639 
	C352.515320,524.046753 349.038788,522.610474 346.810028,520.023193 
	C343.869537,516.609802 339.220978,517.249634 335.973114,514.757507 
	C328.534454,509.049805 325.156738,499.541992 316.347900,494.810944 
	C312.653015,492.826538 312.396698,486.899567 311.626892,482.572998 
	C311.089691,479.553833 314.989532,478.394257 316.637787,476.179535 
	C318.033203,474.304535 319.796844,472.805145 321.787903,471.515076 
	C323.320068,470.522369 323.799896,468.833771 323.142120,467.101624 
	C322.371887,465.073425 320.697784,465.228394 318.950562,465.633270 
	C311.782074,467.294373 306.268402,470.360046 303.963867,478.318939 
	C302.477753,483.451385 301.385620,489.538269 297.072998,493.009796 
	C291.933289,497.147034 289.387878,502.959808 285.339417,507.739075 
	C283.472015,509.943512 284.556976,513.655212 285.966736,513.711365 
	C289.335388,513.845703 288.388794,516.109924 289.069183,517.619324 
	C291.075623,522.070374 291.102844,526.924194 292.139130,532.380310 
M125.875999,702.489807 
	C113.651108,709.040283 100.952385,712.664124 86.735947,711.659546 
	C80.113647,711.191589 73.829300,711.533875 67.795532,705.659302 
	C71.467644,718.660645 72.029640,730.795776 73.669044,742.780762 
	C74.163338,746.394348 73.399963,751.900635 80.301796,749.931519 
	C80.677177,749.824341 81.207802,750.288757 81.673683,750.467590 
	C105.081879,759.452881 124.547058,751.165771 142.461243,736.453247 
	C146.726746,732.950134 148.174362,728.762146 146.278442,722.935486 
	C144.031448,716.029968 143.214401,708.670471 141.497284,701.575562 
	C140.829956,698.818237 140.814133,695.618286 137.819794,693.182861 
	C134.400787,696.744873 130.500198,699.491211 125.875999,702.489807 
M519.374512,913.913940 
	C520.147095,911.194580 520.992493,908.493469 521.680481,905.752869 
	C526.416382,886.887695 530.924927,867.904236 543.675354,852.385010 
	C546.839844,848.533447 546.850342,844.754333 545.456482,840.328064 
	C541.468689,827.664307 539.111877,814.545898 534.628174,802.001160 
	C530.605591,790.746582 527.709534,779.137451 524.748657,767.562683 
	C524.166016,765.285156 522.893677,764.269348 520.508423,764.226685 
	C515.961670,764.145508 514.196533,765.792908 514.224548,771.078430 
	C514.308289,786.883545 514.139465,802.627258 512.509827,818.418396 
	C511.273041,830.402588 513.183533,842.531860 515.025574,854.486755 
	C516.230469,862.306763 520.404236,869.125549 522.792725,876.557800 
	C523.503723,878.770203 523.767578,880.778320 522.551941,882.769287 
	C519.353394,888.007690 516.782593,893.567627 513.142517,898.614258 
	C509.448334,903.735840 504.676666,908.815186 505.410583,915.949097 
	C506.006439,921.741394 506.592834,927.510681 506.517578,933.345337 
	C506.497101,934.934937 506.605133,937.050110 508.631683,937.398926 
	C510.622101,937.741577 511.243256,935.846558 512.046936,934.353882 
	C515.392578,928.140076 516.241760,921.040588 519.374512,913.913940 
M243.421936,355.065094 
	C242.625488,351.989441 242.067688,348.574554 239.023148,346.957611 
	C233.524307,344.037170 232.951508,337.839478 229.215988,333.988617 
	C231.139053,331.463654 232.837448,334.509277 234.872253,333.273407 
	C234.024094,325.411163 224.825516,325.724335 222.828247,319.149689 
	C222.363190,319.514984 221.898132,319.880310 221.433075,320.245636 
	C222.406555,323.660339 223.380035,327.075043 224.594116,331.333649 
	C220.804657,328.595032 221.480911,324.577728 219.071075,321.982544 
	C218.661713,328.231995 215.775436,334.181488 221.947998,339.541992 
	C226.608871,343.589783 231.146042,348.028778 235.414963,352.738495 
	C230.794907,352.761230 227.416412,350.346832 223.872177,349.075073 
	C223.412216,347.035156 226.249527,348.464844 225.680008,346.441071 
	C224.603058,345.654083 223.463333,344.664673 222.184235,343.912109 
	C214.311279,339.280060 211.175186,332.357971 211.647141,323.362427 
	C211.833862,319.803314 213.107605,316.535675 213.497162,313.067993 
	C213.940216,309.124084 211.345001,306.524139 206.050812,305.404480 
	C201.897888,304.526154 201.366013,307.196289 200.903809,310.245636 
	C200.143082,315.264709 200.035706,320.851746 192.407120,321.283661 
	C190.689911,314.934570 192.266098,308.773224 194.485138,302.978241 
	C195.634003,299.977997 199.106415,298.822235 202.604980,299.429077 
	C205.255371,299.888763 207.776459,300.743683 210.058884,302.182861 
	C212.870819,303.955902 215.651276,305.779480 218.427155,307.608765 
	C219.289581,308.177094 220.156860,308.691956 221.195145,308.217712 
	C222.289749,307.717773 222.544159,306.695221 222.206543,305.690216 
	C220.182190,299.664062 221.639130,291.285431 211.790680,290.476929 
	C210.513824,290.372101 209.337311,288.870178 208.142441,287.977753 
	C205.459167,285.973694 201.742233,285.446777 199.794571,287.339294 
	C196.436661,290.602051 192.059006,293.059753 189.898697,297.424805 
	C184.127365,309.086121 186.258759,321.575623 190.166443,332.444061 
	C195.254929,346.596680 205.608627,357.638947 220.800674,362.696960 
	C222.197906,363.162201 223.953110,363.690125 224.701569,364.770996 
	C228.112671,369.696960 233.470627,369.266907 238.234360,369.566315 
	C245.112595,369.998627 246.576843,367.795807 245.028931,361.143188 
	C244.614227,359.360931 244.112289,357.598969 243.421936,355.065094 
M503.478363,288.922363 
	C495.835388,294.034943 491.822632,301.566010 489.772217,310.635956 
	C491.985138,309.401947 493.209625,307.165558 495.019287,305.609894 
	C500.055939,301.280090 505.082611,296.684784 512.446655,297.036377 
	C518.403137,297.320740 520.889282,299.832764 521.458008,305.632874 
	C521.716309,308.267365 522.455994,310.851227 522.864197,313.475616 
	C523.158630,315.368286 523.933472,317.386414 521.827942,319.371552 
	C519.405029,315.750122 512.809692,315.280243 514.979248,308.467834 
	C515.406006,307.127777 513.283813,305.853058 511.312988,306.110291 
	C509.832672,306.303497 508.342346,306.480164 506.852173,306.527130 
	C500.253510,306.735229 499.272308,308.129639 501.290894,314.429413 
	C504.060089,323.071869 503.717957,331.198151 497.154694,338.214020 
	C495.590607,339.885986 493.924927,341.462830 492.341553,343.047821 
	C492.908325,344.839050 495.509552,342.736176 495.839783,345.554840 
	C490.142395,347.783325 484.356781,350.046326 478.571136,352.309357 
	C478.292938,351.828674 478.014771,351.348022 477.736603,350.867371 
	C483.552277,347.966309 487.525391,343.082123 491.742706,338.526489 
	C497.351044,332.468231 499.121796,325.737549 496.697052,322.047516 
	C492.564148,326.615356 489.182709,331.676971 487.027344,337.563385 
	C481.743927,335.910889 480.412537,339.549194 479.198120,342.915283 
	C478.525909,344.778595 478.568573,347.112000 476.916504,348.321320 
	C472.277374,351.717163 472.177948,357.045258 471.059296,361.806396 
	C469.980896,366.396301 472.807007,368.728485 477.435852,367.587372 
	C479.685760,367.032715 481.842712,365.520782 484.166565,365.953644 
	C488.932739,366.841370 492.579803,364.683350 496.138245,362.155090 
	C501.565918,358.298798 507.043182,354.498627 511.887024,349.887787 
	C523.359314,338.967224 529.873657,325.985809 529.905579,309.762085 
	C529.919312,302.779480 525.729492,298.141327 522.894470,292.670807 
	C518.754089,284.681152 511.375549,283.058929 503.478363,288.922363 
M344.143127,927.419556 
	C342.747192,927.910583 341.852112,929.016663 341.687683,930.343872 
	C340.867462,936.964661 340.700256,943.619690 341.866302,950.206238 
	C342.335907,952.858643 344.171173,954.338501 347.071472,954.784180 
	C361.964691,957.072693 376.918610,956.018005 391.858093,955.810913 
	C395.536530,955.759888 396.611938,953.376160 396.762115,950.181213 
	C397.060425,943.834229 396.367950,937.558411 395.531372,931.284912 
	C395.135284,928.314575 393.582184,927.192932 390.566101,926.932739 
	C386.490082,926.581116 382.883606,928.535583 378.797852,928.431335 
	C367.503906,928.143311 356.200226,928.279907 344.143127,927.419556 
M522.980591,974.509399 
	C532.109680,982.281372 536.605469,993.134521 541.338135,1004.907715 
	C546.693237,998.463684 550.577148,993.109680 554.272217,987.588135 
	C555.968201,985.053650 558.661865,982.852966 553.887573,980.721008 
	C552.816101,980.242554 552.471375,978.910889 552.685791,977.647461 
	C553.466492,973.047302 550.833679,969.698425 548.463501,966.290283 
	C542.719788,958.031311 533.645630,953.678406 526.198120,947.415344 
	C522.224304,944.073303 517.690674,944.065063 512.997192,945.177368 
	C509.190033,946.079712 507.351013,948.885437 508.878448,952.260681 
	C512.417480,960.081116 515.237793,968.468628 522.980591,974.509399 
M215.124634,533.760620 
	C209.114487,536.207947 203.147110,538.768066 197.081192,541.068298 
	C191.870300,543.044373 190.938309,547.988342 189.760834,552.242188 
	C189.064087,554.759338 192.761230,555.753052 194.863953,556.972473 
	C197.682312,558.606995 200.157303,557.131409 202.250381,555.572876 
	C215.336655,545.829041 229.606445,538.531738 245.305527,534.005371 
	C253.131409,531.749084 260.315002,528.518921 263.960938,520.398926 
	C264.970123,518.151306 265.948792,515.880737 267.726990,513.984131 
	C269.606323,511.979797 268.382324,509.954254 266.958893,508.178986 
	C265.537506,506.406250 264.539124,504.433777 261.343292,505.522491 
	C258.004150,506.660065 254.505264,507.521881 252.052429,510.036072 
	C241.730637,520.616028 229.097458,527.515259 215.124634,533.760620 
M332.885315,255.047119 
	C332.802856,247.577011 332.706726,240.111252 333.850647,232.686996 
	C334.067871,231.277084 334.307404,229.535385 332.707367,228.647354 
	C331.071411,227.739395 329.865906,228.958389 328.754272,229.925568 
	C321.480042,236.254395 313.788239,242.019928 305.712128,247.287155 
	C304.506866,248.073242 303.096100,249.016663 303.467102,250.836685 
	C303.832001,252.626938 305.486328,252.967865 306.882507,253.329285 
	C313.184906,254.960617 319.097656,257.484253 324.880768,260.461304 
	C330.411621,263.308502 331.845978,262.365204 332.885315,255.047119 
M415.030273,226.483322 
	C411.017334,236.265121 404.028076,244.406494 399.059570,253.517227 
	C400.654816,254.804230 401.695007,254.939651 402.632690,254.607727 
	C410.786041,251.721573 418.960907,248.886185 427.031250,245.780762 
	C429.926697,244.666611 430.165771,242.304428 428.779419,239.571777 
	C426.747772,235.567017 424.781250,231.517609 423.045563,227.378784 
	C422.039825,224.980545 421.600006,222.334763 419.365967,220.724609 
	C416.711823,221.641479 416.415955,224.025681 415.030273,226.483322 
M239.995651,199.262985 
	C241.715988,198.697372 243.478745,198.432327 245.140594,197.493042 
	C262.833466,187.492966 281.107147,178.769928 300.589752,172.774521 
	C306.008240,171.107086 311.431885,169.456543 316.853180,167.798264 
	C304.376678,168.184692 292.421875,170.512039 280.877899,175.223450 
	C268.927612,180.100693 258.118195,186.934540 247.246857,193.686981 
	C235.804611,200.793991 224.155792,205.786880 210.669647,199.264328 
	C209.809341,198.848236 208.746277,198.587494 207.803543,199.498032 
	C206.770248,201.209457 207.530472,202.627960 208.780151,203.873566 
	C212.365829,207.447540 221.097443,209.112381 225.673996,206.863007 
	C230.294800,204.591919 234.764862,202.014084 239.995651,199.262985 
M330.847961,164.345154 
	C328.190216,164.876862 325.532471,165.408569 322.874725,165.940277 
	C322.899628,166.417511 322.924530,166.894760 322.949402,167.371994 
	C355.977356,165.805252 388.608887,168.567963 421.081055,176.050827 
	C420.396667,173.913910 418.864502,173.783157 417.713257,173.442932 
	C405.463745,169.822754 393.276764,165.820328 380.370361,165.272507 
	C376.186554,165.094925 372.122314,164.219284 367.995941,163.784058 
	C355.889801,162.507111 343.772736,162.514542 330.847961,164.345154 
M272.235809,951.235962 
	C275.813538,952.385925 277.800507,950.559937 277.218597,947.352112 
	C275.888428,940.019348 276.668854,932.747375 276.868744,925.442749 
	C276.933075,923.092285 277.160400,920.427917 273.793976,920.209961 
	C270.476532,919.995239 269.582489,922.265381 269.468079,925.068970 
	C269.230377,930.893494 268.887329,936.716675 268.806305,942.543396 
	C268.764374,945.558228 269.330536,948.530945 272.235809,951.235962 
M459.006042,945.592163 
	C458.665344,948.250061 458.804657,951.071106 462.096680,951.254211 
	C465.313080,951.433105 465.948364,948.694153 465.950409,945.996521 
	C465.955536,939.198853 465.956238,932.401001 465.919434,925.603516 
	C465.905731,923.072876 465.474213,920.888794 462.054260,921.281189 
	C459.114502,921.618469 458.770874,923.400146 459.023773,925.879822 
	C459.665009,932.166382 459.268951,938.467346 459.006042,945.592163 
M502.372955,172.122681 
	C500.934448,171.395752 499.569031,170.283157 497.702698,171.251663 
	C496.662567,174.464767 496.627411,177.954651 499.360535,179.947052 
	C505.232452,184.227585 512.240051,187.083649 515.605286,194.597198 
	C516.774292,191.093475 517.849854,187.767151 515.791992,185.215973 
	C512.018799,180.538071 507.863708,176.123383 502.372955,172.122681 
M467.016724,190.507507 
	C455.211182,183.534729 437.202515,178.161118 431.693695,180.611771 
	C446.444366,184.310074 458.571472,193.353745 474.234406,194.953156 
	C471.566833,193.311188 469.598511,192.099609 467.016724,190.507507 
M198.704697,183.205383 
	C195.107666,187.402649 194.112076,192.031921 195.709564,197.709778 
	C200.550293,194.617722 200.491257,189.564514 202.933167,185.970032 
	C203.826721,184.654739 204.351883,183.144730 203.090012,181.929047 
	C201.656097,180.547607 200.391312,181.765503 198.704697,183.205383 
M535.228210,591.775146 
	C536.837158,588.446899 539.398438,585.503601 539.746765,581.186279 
	C534.031555,586.257751 527.779480,597.997192 528.140686,603.021606 
	C530.938599,599.623230 532.945312,596.045044 535.228210,591.775146 
M480.843231,512.616150 
	C478.596680,511.685547 476.874329,512.573669 475.050171,514.134521 
	C477.581909,516.651245 480.215698,515.917847 482.785431,515.477966 
	C483.217926,513.883728 482.159882,513.502991 480.843231,512.616150 
M138.547791,668.851990 
	C134.692062,671.053772 134.536530,671.315979 135.042404,674.762146 
	C137.300766,672.916992 137.300766,672.916992 138.547791,668.851990 
z"/>
<path fill="#000000" opacity="1.000000" stroke="none" 
	d="
M241.851288,1013.624634 
	C244.726181,1010.371948 244.726181,1010.371948 247.867218,1015.195435 
	C246.890671,1016.523071 245.723663,1017.560425 243.942093,1017.699341 
	C242.246399,1016.960327 242.539566,1015.174683 241.851288,1013.624634 
z"/>
<path fill="#000000" opacity="1.000000" stroke="none" 
	d="
M433.070435,668.863953 
	C444.233429,673.322632 456.002472,675.268982 466.504486,681.647339 
	C463.967285,683.843384 462.357513,682.443237 460.759003,681.888550 
	C450.708557,678.401306 440.793518,674.446594 430.108795,673.201965 
	C427.434143,672.890381 426.657715,671.732300 426.154449,668.750854 
	C423.921143,655.520020 426.204987,642.221558 424.950073,629.005310 
	C424.328888,622.463135 427.341125,619.834534 435.932617,620.207825 
	C446.243500,620.655823 456.497406,618.275208 466.762390,619.657104 
	C476.170776,620.923645 485.665863,618.707886 495.017151,620.693298 
	C495.635223,620.824463 496.219452,621.115051 497.940491,621.735901 
	C493.085846,623.891113 488.986328,626.287170 484.762268,625.167297 
	C476.533691,622.985718 468.549011,624.744934 460.521729,625.528748 
	C453.005951,626.262512 445.691467,624.702515 438.285095,624.352051 
	C430.907715,624.002869 429.953247,624.411438 430.828186,631.562683 
	C431.050415,633.379272 431.155243,635.210022 431.350555,637.030334 
	C431.525208,638.658325 431.750183,640.280945 431.942047,641.818481 
	C450.335938,643.341675 468.766968,641.453430 487.125549,643.675232 
	C467.829407,646.022339 448.446106,645.111145 428.895142,644.925964 
	C426.392273,651.568359 428.257507,658.355896 428.480011,665.071838 
	C428.559357,667.468262 430.751160,668.126587 433.070435,668.863953 
z"/>
<path fill="#000000" opacity="1.000000" stroke="none" 
	d="
M439.371613,743.130615 
	C438.319794,741.465088 438.174286,739.579407 436.188507,739.042969 
	C435.105927,740.134216 437.191132,741.141724 435.987000,742.470276 
	C433.990356,742.653137 433.322540,740.736572 432.149902,739.487610 
	C426.733154,733.718201 424.522949,727.178223 424.398926,719.015930 
	C424.253113,709.420227 420.087250,700.151367 420.815857,690.246826 
	C421.470459,681.348328 421.615845,672.412354 421.991119,663.366089 
	C424.687897,663.855164 424.063690,665.697815 424.231506,666.994263 
	C426.350372,683.363159 426.703033,699.847595 427.076477,716.312195 
	C427.184082,721.054688 428.058533,725.055115 431.248779,728.615540 
	C434.022827,731.711487 436.238892,735.347595 439.211517,738.216614 
	C444.488098,743.309692 451.642273,743.485779 458.288239,743.743164 
	C469.036530,744.159363 479.802429,743.181702 490.548645,742.850830 
	C473.659088,747.171875 456.742554,750.279602 439.371613,743.130615 
z"/>
<path fill="#000000" opacity="1.000000" stroke="none" 
	d="
M500.004944,735.971008 
	C498.018097,738.015442 497.030060,740.882080 493.474670,740.636841 
	C492.689026,737.338806 495.294891,735.888611 496.947937,734.570618 
	C500.524323,731.719299 501.832764,727.889893 502.587585,723.790710 
	C505.610199,707.375793 505.480804,690.688232 506.665436,674.114136 
	C506.719452,673.358521 506.335419,672.571655 506.043701,671.320190 
	C493.353394,674.399353 482.368958,681.591064 469.220001,685.114563 
	C470.274109,681.596985 472.563477,681.114868 474.366791,680.222839 
	C482.886078,676.008667 491.833618,672.843262 500.841095,669.886353 
	C503.644562,668.966064 504.978027,667.483887 505.091827,664.594788 
	C505.275085,659.943481 505.520630,655.291809 505.892914,650.652466 
	C506.019745,649.071655 506.112183,646.954102 508.341858,646.931702 
	C510.299011,646.911987 510.243286,648.920898 510.680908,650.292969 
	C511.846710,653.948120 510.953674,657.560608 510.361969,661.156982 
	C508.163239,674.520264 509.708801,688.058105 508.377777,701.485229 
	C507.475677,710.585510 507.246765,719.702881 504.436890,728.541870 
	C503.542084,731.356689 502.442108,733.777832 500.004944,735.971008 
z"/>
<path fill="#000000" opacity="1.000000" stroke="none" 
	d="
M556.226562,700.124023 
	C553.260315,708.365479 550.391357,716.225647 547.522400,724.085754 
	C546.958862,723.888550 546.395325,723.691284 545.831787,723.494080 
	C551.895874,701.510681 561.493774,680.600952 566.694336,658.328186 
	C566.486694,672.952515 560.548340,686.135193 556.226562,700.124023 
z"/>
<path fill="#000000" opacity="1.000000" stroke="none" 
	d="
M499.518677,633.563721 
	C500.170959,629.953247 499.205322,626.502258 501.408356,623.044373 
	C508.214478,629.622375 505.971375,636.984497 504.852997,644.328247 
	C500.247040,644.947144 498.224731,643.288147 498.756226,638.916809 
	C498.955444,637.277832 499.214691,635.646179 499.518677,633.563721 
z"/>
<path fill="#000000" opacity="1.000000" stroke="none" 
	d="
M466.196228,661.961365 
	C466.665039,663.340515 465.640167,663.853333 465.102783,664.632874 
	C463.711945,666.650513 462.953552,668.777161 464.423096,671.065125 
	C465.959351,673.456970 468.222656,674.032776 470.906799,673.480164 
	C472.313416,673.190674 473.681763,672.334961 475.536407,673.196838 
	C473.510315,676.615784 470.325653,677.086731 467.157532,676.352295 
	C463.501770,675.504761 460.970825,672.831177 460.813110,669.012207 
	C460.672424,665.605652 461.856415,662.478149 466.196228,661.961365 
z"/>
<path fill="#000000" opacity="1.000000" stroke="none" 
	d="
M550.823486,603.551758 
	C551.791504,607.262878 551.483826,610.726318 548.537109,614.588867 
	C548.090942,610.047180 549.259888,606.780212 550.823486,603.551758 
z"/>
<path fill="#000000" opacity="1.000000" stroke="none" 
	d="
M217.499176,609.553711 
	C220.255432,615.395569 224.115891,620.322571 225.631500,627.018738 
	C222.253372,625.187378 221.721252,621.769287 219.413589,619.191101 
	C219.154907,623.836670 223.135071,628.364685 218.065903,632.373596 
	C214.982986,628.765930 215.478806,624.468079 215.021072,620.510620 
	C214.587738,616.764221 214.986572,612.876526 214.172974,609.240356 
	C213.826920,607.693665 214.051804,603.597473 209.879333,605.158508 
	C209.660126,605.240601 208.874054,604.354675 208.651260,603.799377 
	C204.130493,592.530823 199.643936,581.248413 195.196213,569.950867 
	C194.975128,569.389282 195.167786,568.664795 195.765945,567.746643 
	C202.329147,581.935852 210.753357,595.086243 217.499176,609.553711 
z"/>
<path fill="#000000" opacity="1.000000" stroke="none" 
	d="
M270.877625,312.898987 
	C267.431091,307.708313 267.828156,302.088074 267.418915,296.644989 
	C267.015869,291.284363 264.921204,289.952759 260.028961,292.134583 
	C257.891449,293.087860 255.995789,294.423523 254.306458,296.077637 
	C252.269867,298.071777 250.363434,301.403748 246.978668,298.509247 
	C243.731995,295.732849 243.998230,290.077332 247.378693,287.466278 
	C251.596451,284.208435 256.068878,281.285858 261.289978,279.801819 
	C277.450806,275.208405 293.498535,276.168427 309.463776,280.825195 
	C314.041168,282.160400 317.503235,285.455078 321.440704,287.880890 
	C323.578094,289.197662 322.930878,292.117157 322.721680,294.255737 
	C322.537659,296.136841 320.734009,296.597778 318.818573,296.297394 
	C314.864716,295.677460 314.708038,298.651001 314.235901,301.309845 
	C312.611511,310.457794 308.818878,318.014587 299.616730,321.824799 
	C288.772186,326.315002 280.037781,323.745667 270.877625,312.898987 
z"/>
<path fill="#000000" opacity="1.000000" stroke="none" 
	d="
M441.090332,315.080383 
	C433.899200,322.142548 425.640656,323.877899 416.434692,321.405823 
	C407.574402,319.026581 403.902527,312.158447 401.861237,303.997223 
	C401.740143,303.513092 401.619446,303.021454 401.575623,302.526520 
	C401.143982,297.653412 400.089355,293.553650 393.625549,295.886658 
	C393.358673,295.983002 392.967865,295.814575 392.661072,295.699463 
	C392.357056,295.585388 392.086304,295.382629 391.421783,295.001007 
	C392.495667,286.927399 398.041046,281.860748 404.976227,279.871643 
	C420.193359,275.507172 435.761993,272.597534 451.585541,277.691223 
	C456.568329,279.295227 461.116882,281.715454 465.317169,284.686646 
	C469.628387,287.736298 469.526337,293.823853 464.844452,297.875854 
	C462.919373,292.686462 458.136993,291.440155 453.724030,289.634613 
	C448.370911,287.444458 447.081635,288.215240 447.370300,293.960785 
	C447.756744,301.652252 447.302277,309.002136 441.090332,315.080383 
z"/>
<path fill="#000000" opacity="1.000000" stroke="none" 
	d="
M301.258667,337.479675 
	C298.721893,338.169281 296.672974,339.824554 294.250061,338.414032 
	C293.495331,336.518341 296.226532,336.837677 296.109528,335.373993 
	C295.909180,335.164703 295.687042,334.735779 295.476288,334.741333 
	C290.509613,334.871368 285.585297,335.215851 280.564911,334.877655 
	C277.428589,334.666382 274.006744,336.119171 270.642822,336.655884 
	C263.167389,337.848602 258.886566,334.430511 256.669189,327.529327 
	C255.255264,323.128754 254.527481,319.950989 257.836670,316.190338 
	C272.810394,336.662506 291.400757,332.424408 310.374908,323.269287 
	C312.915131,329.221191 312.268188,331.509644 307.400055,334.415314 
	C305.548828,335.520264 303.550598,336.378998 301.258667,337.479675 
z"/>
<path fill="#000000" opacity="1.000000" stroke="none" 
	d="
M448.625488,335.735962 
	C444.154572,337.581024 440.018890,335.617737 436.225983,334.959229 
	C431.024506,334.056244 426.004242,334.832977 420.496887,334.086456 
	C420.882324,338.651093 418.551331,338.788055 415.356354,337.573029 
	C408.141205,334.829041 402.163513,331.086975 402.409363,322.102234 
	C403.562073,321.118805 404.967285,321.557892 405.640808,322.252991 
	C409.400299,326.132690 414.664398,326.223175 419.287140,327.718933 
	C433.044952,332.170502 441.836060,329.823639 455.574646,318.550079 
	C456.393585,320.488739 458.594696,322.341980 457.671631,324.169830 
	C455.512787,328.444702 455.813019,334.841248 448.625488,335.735962 
z"/>
<path fill="#000000" opacity="1.000000" stroke="none" 
	d="
M375.415771,403.371399 
	C374.413239,406.189056 372.314758,405.355957 370.799438,404.784088 
	C363.131012,401.890167 355.617889,401.771759 348.107574,405.269775 
	C346.856781,405.852356 346.777191,405.681458 343.948151,405.170624 
	C346.084045,397.784851 366.565216,396.373718 375.415771,403.371399 
z"/>
<path fill="#000000" opacity="1.000000" stroke="none" 
	d="
M352.947388,350.208649 
	C354.946320,347.991211 356.907867,346.396851 359.638733,347.877594 
	C361.847198,349.074982 361.400299,351.140625 360.910156,353.139252 
	C360.351898,355.415588 359.839050,358.408997 356.745392,357.087616 
	C354.369293,356.072754 350.074036,355.076965 352.947388,350.208649 
z"/>
<path fill="#000000" opacity="1.000000" stroke="none" 
	d="
M445.206299,138.487244 
	C448.411530,140.579788 452.562653,140.058563 455.857361,144.297150 
	C446.393890,141.198410 438.093201,138.945297 429.922638,135.208725 
	C432.455261,134.464859 432.468750,134.418259 437.361481,135.835648 
	C439.894104,136.569366 442.368988,137.502335 445.206299,138.487244 
z"/>
</svg>